<svg xmlns="http://www.w3.org/2000/svg" width="16" height="16" viewBox="0 0 16 16" fill="none">
  <path d="M2.33332 14.6666C1.99999 14.6666 1.66666 14.5999 1.33332 14.3999C0.399991 13.8666 0.066658 12.5999 0.599991 11.6666L6.26666 2.19993C6.46666 1.93327 6.66666 1.6666 6.93332 1.53327C7.39999 1.2666 7.93332 1.19993 8.46666 1.33327C8.99999 1.4666 9.39999 1.79993 9.73333 2.2666L15.3333 11.6666C15.5333 11.9999 15.6 12.3333 15.6 12.6666C15.6 13.1999 15.4 13.7333 15 14.0666C14.6667 14.4666 14.2 14.6666 13.6667 14.6666H2.33332ZM7.39999 2.93327L1.79999 12.3333C1.59999 12.6666 1.73332 13.0666 2.06666 13.2666C2.13332 13.3333 2.26666 13.3333 2.33332 13.3333H13.6C13.8 13.3333 13.9333 13.2666 14.0667 13.1333C14.2 12.9999 14.2667 12.8666 14.2667 12.6666C14.2667 12.5333 14.2667 12.4666 14.2 12.3333L8.59999 2.93327C8.39999 2.59993 7.99999 2.53327 7.66666 2.6666C7.53332 2.73327 7.46666 2.79993 7.39999 2.93327Z" fill="#D07900"/>
  <path d="M7.99999 9.33327C7.59999 9.33327 7.33332 9.0666 7.33332 8.6666V5.99994C7.33332 5.59994 7.59999 5.33327 7.99999 5.33327C8.39999 5.33327 8.66666 5.59994 8.66666 5.99994V8.6666C8.66666 9.0666 8.39999 9.33327 7.99999 9.33327Z" fill="#D07900"/>
  <path d="M7.99999 11.9999C7.79999 11.9999 7.66666 11.9333 7.53332 11.7999C7.39999 11.6666 7.33332 11.5333 7.33332 11.3333C7.33332 11.2666 7.33332 11.1333 7.39999 11.0666C7.46666 10.9999 7.46666 10.9333 7.53332 10.8666C7.59999 10.7999 7.66666 10.7333 7.73333 10.7333C7.86666 10.6666 7.99999 10.6666 8.13332 10.6666C8.19999 10.6666 8.19999 10.6666 8.26666 10.7333C8.33332 10.7333 8.33332 10.7333 8.39999 10.7999C8.39999 10.7999 8.46666 10.8666 8.53333 10.8666C8.59999 10.9333 8.66666 10.9999 8.66666 11.0666C8.66666 11.1333 8.73333 11.2666 8.73333 11.3333C8.73333 11.5333 8.66666 11.6666 8.53333 11.7999C8.33332 11.9333 8.19999 11.9999 7.99999 11.9999Z" fill="#D07900"/>
</svg>