<svg xmlns="http://www.w3.org/2000/svg" width="16" height="16" viewBox="0 0 16 16" fill="none">
  <path d="M2.11328 4.96094L7.99994 8.36759L13.8466 4.98092" stroke="#453E9A" stroke-width="1.33333" stroke-linecap="round" stroke-linejoin="round"/>
  <path d="M7.99988 14.407V8.36035" stroke="#453E9A" stroke-width="1.33333" stroke-linecap="round" stroke-linejoin="round"/>
  <path d="M6.61991 1.65398L3.05992 3.63401C2.25325 4.08067 1.59326 5.20066 1.59326 6.12066V9.88734C1.59326 10.8073 2.25325 11.9273 3.05992 12.374L6.61991 14.354C7.37991 14.774 8.62658 14.774 9.38658 14.354L12.9466 12.374C13.7533 11.9273 14.4132 10.8073 14.4132 9.88734V6.12066C14.4132 5.20066 13.7533 4.08067 12.9466 3.63401L9.38658 1.65398C8.61991 1.22732 7.37991 1.22732 6.61991 1.65398Z" stroke="#453E9A" stroke-width="1.33333" stroke-linecap="round" stroke-linejoin="round"/>
  <path d="M11.3334 8.82674V6.38676L5.00671 2.7334" stroke="#453E9A" stroke-width="1.33333" stroke-linecap="round" stroke-linejoin="round"/>
</svg>