<svg xmlns="http://www.w3.org/2000/svg" width="24" height="24" viewBox="0 0 24 24" fill="none">
<path fill-rule="evenodd" clip-rule="evenodd" d="M4 5C3.44772 5 3 5.44772 3 6V17C3 17.5523 3.44772 18 4 18H20C20.5523 18 21 17.5523 21 17V6C21 5.44772 20.5523 5 20 5H4ZM1 6C1 4.34315 2.34315 3 4 3H20C21.6569 3 23 4.34315 23 6V17C23 18.6569 21.6569 20 20 20H4C2.34315 20 1 18.6569 1 17V6Z" fill="#453E9A"/>
<path fill-rule="evenodd" clip-rule="evenodd" d="M1 9C1 8.44772 1.44772 8 2 8H22C22.5523 8 23 8.44772 23 9C23 9.55228 22.5523 10 22 10H2C1.44772 10 1 9.55228 1 9Z" fill="#453E9A"/>
<rect x="5" y="13" width="5" height="2" rx="1" fill="#453E9A"/>
</svg>