<svg xmlns="http://www.w3.org/2000/svg" width="24" height="24" viewBox="0 0 24 24" fill="none">
    <path fill-rule="evenodd" clip-rule="evenodd" d="M5.83325 17.5002C5.83325 16.5797 6.57944 15.8335 7.49992 15.8335C8.42039 15.8335 9.16659 16.5797 9.16659 17.5002C9.16659 18.4206 8.42039 19.1668 7.49992 19.1668C6.57944 19.1668 5.83325 18.4206 5.83325 17.5002Z" fill="white"/>
    <path fill-rule="evenodd" clip-rule="evenodd" d="M15 17.5002C15 16.5797 15.7462 15.8335 16.6667 15.8335C17.5871 15.8335 18.3333 16.5797 18.3333 17.5002C18.3333 18.4206 17.5871 19.1668 16.6667 19.1668C15.7462 19.1668 15 18.4206 15 17.5002Z" fill="white"/>
    <path d="M0.833333 0C0.373096 0 0 0.373096 0 0.833333C0 1.29357 0.373096 1.66667 0.833333 1.66667H3.4836L4.17663 5.12923C4.18032 5.15294 4.18501 5.17633 4.19066 5.19934L5.58277 12.1547C5.6972 12.7299 6.01021 13.2466 6.46707 13.6144C6.92184 13.9805 7.49031 14.1758 8.07387 14.1667H16.1595C16.743 14.1758 17.3115 13.9805 17.7663 13.6144C18.2233 13.2465 18.5364 12.7295 18.6507 12.154L19.9852 5.15611C20.0318 4.91215 19.9671 4.66015 19.8087 4.4688C19.6504 4.27744 19.415 4.16667 19.1667 4.16667H5.68369L4.98379 0.669786C4.90584 0.280321 4.56386 0 4.16667 0H0.833333Z" fill="white"/>
    </svg>