<svg xmlns="http://www.w3.org/2000/svg" width="20" height="20" viewBox="0 0 20 20" fill="none">
    <path fill-rule="evenodd" clip-rule="evenodd" d="M14.7908 5.20921C15.0697 5.48816 15.0697 5.94042 14.7908 6.21936L6.21936 14.7908C5.94042 15.0697 5.48816 15.0697 5.20921 14.7908C4.93026 14.5118 4.93026 14.0596 5.20921 13.7806L13.7806 5.20921C14.0596 4.93026 14.5118 4.93026 14.7908 5.20921Z" fill="#3D3D3D"/>
    <path fill-rule="evenodd" clip-rule="evenodd" d="M5.20921 5.20921C5.48816 4.93026 5.94042 4.93026 6.21936 5.20921L14.7908 13.7806C15.0697 14.0596 15.0697 14.5118 14.7908 14.7908C14.5118 15.0697 14.0596 15.0697 13.7806 14.7908L5.20921 6.21936C4.93026 5.94042 4.93026 5.48816 5.20921 5.20921Z" fill="#3D3D3D"/>
  </svg>