<svg xmlns="http://www.w3.org/2000/svg" width="24" height="24" viewBox="0 0 24 24" fill="none">
    <path fill-rule="evenodd" clip-rule="evenodd" d="M17.7489 6.25105C18.0837 6.58579 18.0837 7.1285 17.7489 7.46323L7.46323 17.7489C7.1285 18.0837 6.58579 18.0837 6.25105 17.7489C5.91632 17.4142 5.91632 16.8715 6.25105 16.5368L16.5368 6.25105C16.8715 5.91632 17.4142 5.91632 17.7489 6.25105Z" fill="#3D3D3D"/>
    <path fill-rule="evenodd" clip-rule="evenodd" d="M6.25105 6.25105C6.58579 5.91632 7.1285 5.91632 7.46323 6.25105L17.7489 16.5368C18.0837 16.8715 18.0837 17.4142 17.7489 17.7489C17.4142 18.0837 16.8715 18.0837 16.5368 17.7489L6.25105 7.46323C5.91632 7.1285 5.91632 6.58579 6.25105 6.25105Z" fill="#3D3D3D"/>
    </svg>