<svg xmlns="http://www.w3.org/2000/svg" width="24" height="24" viewBox="0 0 24 24" fill="none">
<path fill-rule="evenodd" clip-rule="evenodd" d="M3.375 3.5C2.20172 3.5 1.25 4.45172 1.25 5.625V15.375C1.25 15.9386 1.47388 16.4791 1.8724 16.8776C2.27091 17.2761 2.81142 17.5 3.375 17.5H20.625C21.7983 17.5 22.75 16.5483 22.75 15.375V5.625C22.75 4.45172 21.7983 3.5 20.625 3.5H3.375ZM4.73206 5.5C4.67841 5.8717 4.50612 6.21875 4.23744 6.48744C3.96875 6.75612 3.6217 6.92841 3.25 6.98206V14.0179C3.6217 14.0716 3.96875 14.2439 4.23744 14.5126C4.50612 14.7812 4.67841 15.1283 4.73206 15.5H19.2679C19.3216 15.1283 19.4939 14.7812 19.7626 14.5126C20.0312 14.2439 20.3783 14.0716 20.75 14.0179V6.98227C19.9837 6.8726 19.3774 6.26627 19.2677 5.5H4.73206ZM12 8.5C11.4696 8.5 10.9609 8.71071 10.5858 9.08579C10.2107 9.46086 10 9.96957 10 10.5C10 11.0304 10.2107 11.5391 10.5858 11.9142C10.9609 12.2893 11.4696 12.5 12 12.5C12.5304 12.5 13.0391 12.2893 13.4142 11.9142C13.7893 11.5391 14 11.0304 14 10.5C14 9.96957 13.7893 9.46086 13.4142 9.08579C13.0391 8.71071 12.5304 8.5 12 8.5ZM9.17157 7.67157C9.92172 6.92143 10.9391 6.5 12 6.5C13.0609 6.5 14.0783 6.92143 14.8284 7.67157C15.5786 8.42172 16 9.43913 16 10.5C16 11.5609 15.5786 12.5783 14.8284 13.3284C14.0783 14.0786 13.0609 14.5 12 14.5C10.9391 14.5 9.92172 14.0786 9.17157 13.3284C8.42143 12.5783 8 11.5609 8 10.5C8 9.43913 8.42143 8.42172 9.17157 7.67157ZM5 10.5C5 9.94772 5.44772 9.5 6 9.5H6.008C6.56028 9.5 7.008 9.94772 7.008 10.5V10.508C7.008 11.0603 6.56028 11.508 6.008 11.508H6C5.44772 11.508 5 11.0603 5 10.508V10.5ZM17 10.5C17 9.94772 17.4477 9.5 18 9.5H18.008C18.5603 9.5 19.008 9.94772 19.008 10.5V10.508C19.008 11.0603 18.5603 11.508 18.008 11.508H18C17.4477 11.508 17 11.0603 17 10.508V10.5ZM17.7842 21.8159C12.7211 20.4405 7.49738 19.7457 2.25081 19.75C1.69853 19.7505 1.25045 19.3031 1.25 18.7508C1.24955 18.1985 1.6969 17.7505 2.24919 17.75C7.67362 17.7456 13.0745 18.4639 18.3092 19.886C18.359 19.8996 18.4067 19.8896 18.4457 19.8603C18.4833 19.8321 18.5 19.797 18.5 19.755V18.75C18.5 18.1977 18.9477 17.75 19.5 17.75C20.0523 17.75 20.5 18.1977 20.5 18.75V19.755C20.5 21.1867 19.1294 22.1822 17.7842 21.8159Z" fill="#E99C30"/>
</svg>