<svg xmlns="http://www.w3.org/2000/svg" width="24" height="24" viewBox="0 0 24 24" fill="none">
<path fill-rule="evenodd" clip-rule="evenodd" d="M14.3645 2.4894C15.1222 2.1663 15.9344 2 16.7546 2C17.5747 2 18.3869 2.1663 19.1446 2.4894C19.9022 2.81244 20.5905 3.2859 21.1702 3.88273C21.7502 4.47937 22.2105 5.18806 22.5244 5.96769C22.8384 6.74746 23 7.58326 23 8.42732C23 9.27139 22.8384 10.1072 22.5244 10.887C22.2105 11.6667 21.7504 12.3751 21.1704 12.9718C21.1703 12.9718 21.1704 12.9717 21.1704 12.9718L12.679 21.7105C12.3038 22.0965 11.6956 22.0965 11.3205 21.7105L2.8291 12.9718C1.65795 11.7665 1 10.1318 1 8.42732C1 6.72283 1.65795 5.08815 2.8291 3.88289C4.00025 2.67764 5.58867 2.00053 7.24493 2.00053C8.90119 2.00053 10.4896 2.67764 11.6608 3.88289L11.9997 4.23174L12.3386 3.88306C12.3385 3.88311 12.3386 3.883 12.3386 3.88306C12.9183 3.28615 13.6069 2.81247 14.3645 2.4894ZM16.7546 3.97708C16.1867 3.97708 15.6245 4.09221 15.0999 4.3159C14.5753 4.53959 14.0987 4.86744 13.6973 5.28074L12.679 6.32876C12.3038 6.71481 11.6956 6.71481 11.3205 6.32876L10.3023 5.2809C9.49145 4.44642 8.39167 3.97761 7.24493 3.97761C6.09819 3.97761 4.99842 4.44642 4.18755 5.2809C3.37668 6.11539 2.92114 7.24719 2.92114 8.42732C2.92114 9.60746 3.37668 10.7393 4.18755 11.5737L11.9997 19.6135L19.8119 11.5737C20.2135 11.1606 20.5323 10.67 20.7496 10.1301C20.967 9.5903 21.0789 9.01168 21.0789 8.42732C21.0789 7.84297 20.967 7.26435 20.7496 6.7245C20.5323 6.18465 20.2137 5.69417 19.8121 5.28107C19.4107 4.86777 18.9338 4.53959 18.4092 4.3159C17.8846 4.09221 17.3224 3.97708 16.7546 3.97708Z" fill="#3D3D3D"/>
</svg>