<svg xmlns="http://www.w3.org/2000/svg" width="24" height="8" viewBox="0 0 24 8">
    <g fill="none">
        <path fill="#84B740" d="M0 4.61H10.142V7.989000000000001H0z"/>
        <path fill="#259BD6" d="M0 0H10.142V3.382H0z"/>
        <path fill="#27292D" d="M20.284 7.302l-.045.01c-.157.03-.214.042-.328.042-.265 0-.579-.136-.579-.774 0-.329.055-.765.549-.765h.003c.084.006.18.015.36.07l.04.011v1.406zm.081-3.183l-.08.016v1.18l-.073-.021-.021-.006c-.082-.024-.268-.078-.449-.078-.988 0-1.195.746-1.195 1.373 0 .858.481 1.352 1.322 1.352.355 0 .617-.036.882-.124.244-.078.331-.19.331-.427V3.996c-.235.042-.479.084-.717.123M23.22 7.323l-.042.013-.15.039c-.142.036-.269.057-.365.057-.232 0-.37-.115-.37-.31 0-.127.057-.34.436-.34h.491v.541zm-.346-2.129c-.304 0-.618.055-1.006.175l-.253.075.084.573.247-.082c.26-.084.581-.138.822-.138.109 0 .44 0 .44.358v.157h-.46c-.84 0-1.23.268-1.23.843 0 .49.359.786.961.786.187 0 .446-.036.669-.09l.012-.004.012.003.075.012c.235.043.479.085.717.13v-1.88c0-.607-.368-.918-1.09-.918M17.37 7.323l-.043.013-.15.039c-.142.036-.266.057-.365.057-.232 0-.37-.115-.37-.31 0-.127.057-.34.433-.34h.491l.003.541zm-.344-2.129c-.307 0-.617.055-1.006.175l-.253.075.084.573.247-.082c.26-.084.582-.138.822-.138.109 0 .44 0 .44.358v.157h-.46c-.84 0-1.232.268-1.232.843 0 .49.358.786.963.786.187 0 .446-.036.669-.09l.012-.004.012.003.072.012c.238.043.479.085.717.133v-1.88c.003-.613-.364-.92-1.087-.92M14.198 5.2c-.382 0-.698.127-.816.181l-.03.015-.027-.02c-.163-.118-.4-.179-.732-.179-.292 0-.566.043-.864.13-.256.078-.355.202-.355.434v2.147h.8V5.923l.04-.012c.162-.054.259-.063.352-.063.232 0 .35.123.35.364v1.699h.788V6.179c0-.102-.02-.162-.024-.174l-.027-.052.054-.024c.12-.054.253-.081.392-.081.16 0 .35.063.35.364v1.699h.785V6.134c0-.63-.337-.933-1.036-.933M22.63 2.204c-.118 0-.313-.012-.467-.042l-.045-.009V.993c0-.096-.018-.156-.021-.165L22.073.78l.051-.021c.012-.006.024-.01.04-.015l.008-.006.054-.018c.01-.003.015-.006.021-.006.178-.049.34-.042.413-.049h.003c.49 0 .548.437.548.765-.003.639-.32.774-.581.774M22.627 0h-.021c-.461 0-.934.126-1.102.373-.09.12-.142.271-.145.45v1.195c0 .102-.021.141-.024.15l-.027.051h-1.455v-.83h-.003C19.832.511 19.314.03 18.565.03h-.732c-.03.214-.054.364-.084.578h.728c.383 0 .584.326.584.825v.838l-.05-.028c-.01-.003-.073-.024-.172-.024h-1.26c-.023.16-.053.368-.086.575h3.87c.132-.027.285-.05.418-.072.195.097.56.148.81.148.84 0 1.385-.563 1.385-1.43-.003-.859-.53-1.422-1.35-1.44M15.842 3.147h.037c.84 0 1.231-.277 1.231-.96 0-.492-.358-.883-.96-.883h-.774c-.232 0-.37-.133-.37-.355 0-.151.056-.338.436-.338h1.692c.036-.22.054-.358.088-.578h-1.759c-.82 0-1.232.343-1.232.916 0 .566.359.86.961.86h.774c.232 0 .37.184.37.377 0 .127-.057.389-.433.389h-.13l-2.478-.006h-.452c-.382 0-.65-.217-.65-.72v-.346c0-.524.208-.85.65-.85h.735l.084-.575H12.66c-.75 0-1.267.503-1.285 1.38v.391c.018.876.536 1.295 1.285 1.295h.732l1.343.003h1.108z"/>
    </g>
</svg>
