<svg xmlns="http://www.w3.org/2000/svg" width="16" height="16" viewBox="0 0 16 16" fill="none">
  <path d="M6.99343 1.48703L3.66677 2.73369C2.9001 3.02036 2.27344 3.92702 2.27344 4.74702V9.70035C2.27344 10.487 2.79344 11.5204 3.42678 11.9937L6.29344 14.1337C7.23344 14.8404 8.78009 14.8404 9.72009 14.1337L12.5868 11.9937C13.2201 11.5204 13.7401 10.487 13.7401 9.70035V4.74702C13.7401 3.92702 13.1134 3.02036 12.3468 2.73369L9.0201 1.48703C8.45343 1.28036 7.54676 1.28036 6.99343 1.48703Z" stroke="#707070" stroke-width="1.33333" stroke-linecap="round" stroke-linejoin="round"/>
  <path d="M8.00008 7.28027C7.97341 7.28027 7.94008 7.28027 7.91341 7.28027C7.28674 7.26027 6.78674 6.74027 6.78674 6.10693C6.78674 5.46027 7.31342 4.93359 7.96008 4.93359C8.60675 4.93359 9.13342 5.46027 9.13342 6.10693C9.12676 6.74693 8.62675 7.26027 8.00008 7.28027Z" stroke="#707070" stroke-width="1.33333" stroke-linecap="round" stroke-linejoin="round"/>
  <path d="M6.67336 9.14723C6.03336 9.57389 6.03336 10.2739 6.67336 10.7006C7.40003 11.1872 8.59336 11.1872 9.32003 10.7006C9.96003 10.2739 9.96003 9.57389 9.32003 9.14723C8.60003 8.66056 7.40669 8.66056 6.67336 9.14723Z" stroke="#707070" stroke-width="1.33333" stroke-linecap="round" stroke-linejoin="round"/>
</svg>