<svg xmlns="http://www.w3.org/2000/svg" width="24" height="24" viewBox="0 0 24 24" fill="none">
<path fill-rule="evenodd" clip-rule="evenodd" d="M13.1273 1.97779C13.1273 0.912955 14.4111 0.375646 15.1695 1.12305L22.8398 8.6815C23.436 9.26902 23.436 10.2308 22.8398 10.8183L15.1695 18.3768C14.4111 19.1242 13.1273 18.5869 13.1273 17.5221V14.3443C11.2675 14.3573 9.59769 15.3407 8.14557 16.8559C6.56898 18.5011 5.36049 20.6663 4.60471 22.4743C4.30818 23.1837 3.60306 23.4092 3.07054 23.3356C2.52836 23.2607 1.87896 22.8259 1.84795 22.0071C1.62282 16.0638 3.4387 11.9476 5.90639 9.25485C8.19802 6.75425 11.0094 5.52861 13.1273 5.18374V1.97779ZM15.1273 3.88928V5.60257C15.1273 6.41728 14.4974 7.03039 13.7639 7.11397C12.0697 7.30699 9.4855 8.30956 7.38088 10.6061C5.64517 12.5001 4.20084 15.313 3.89067 19.3691C4.63608 18.0251 5.57595 16.6467 6.70159 15.4721C8.50242 13.593 10.8905 12.1282 13.7811 12.37C14.5823 12.437 15.1273 13.1172 15.1273 13.8474V15.6106L21.0746 9.74992L15.1273 3.88928Z" fill="#3D3D3D"/>
</svg>