<svg xmlns="http://www.w3.org/2000/svg" width="24" height="24" viewBox="0 0 24 24" fill="none">
    <rect x="15.5356" y="7.05029" width="2" height="12" rx="1" transform="rotate(45 15.5356 7.05029)" fill="#E99C30"/>
    <circle cx="15.5356" cy="15.5355" r="2" transform="rotate(45 15.5356 15.5355)" fill="#E99C30"/>
    <circle cx="8.46436" cy="8.46417" r="2" transform="rotate(45 8.46436 8.46417)" fill="#E99C30"/>
    <path fill-rule="evenodd" clip-rule="evenodd" d="M10.2855 1.47504C11.3158 0.757668 12.6838 0.757668 13.7141 1.47504L14.9438 2.33128C15.1119 2.44838 15.3121 2.51099 15.517 2.51062L17.026 2.50787C18.3144 2.50553 19.4605 3.32621 19.8733 4.54678L20.299 5.80554C20.368 6.00943 20.5009 6.18564 20.678 6.30797L21.7835 7.0716C22.8891 7.83531 23.352 9.24108 22.9165 10.5123L22.5179 11.6758C22.4459 11.8859 22.4459 12.114 22.5179 12.324L22.9165 13.4876C23.352 14.7588 22.8891 16.1646 21.7835 16.9283L20.678 17.6919C20.5009 17.8142 20.368 17.9904 20.299 18.1943L19.8733 19.4531C19.4605 20.6737 18.3144 21.4943 17.026 21.492L15.517 21.4893C15.3121 21.4889 15.1119 21.5515 14.9438 21.6686L13.7141 22.5248C12.6838 23.2422 11.3158 23.2422 10.2855 22.5248L9.05584 21.6686C8.88765 21.5515 8.68755 21.4889 8.4826 21.4893L6.97363 21.492C5.68516 21.4943 4.53908 20.6737 4.1263 19.4531L3.7006 18.1943C3.63164 17.9904 3.49874 17.8142 3.32164 17.6919L2.21612 16.9283C1.11049 16.1646 0.647561 14.7588 1.08308 13.4876L1.4817 12.324C1.55368 12.114 1.55368 11.8859 1.4817 11.6758L1.08308 10.5123C0.647561 9.24108 1.11049 7.83531 2.21612 7.0716L3.32164 6.30797C3.49874 6.18564 3.63164 6.00943 3.7006 5.80554L4.1263 4.54678C4.53908 3.32621 5.68515 2.50553 6.97363 2.50787L8.4826 2.51062C8.68755 2.51099 8.88766 2.44838 9.05584 2.33128L10.2855 1.47504ZM12.5712 3.11636C12.2278 2.87723 11.7718 2.87723 11.4284 3.11636L10.1987 3.97259C9.69412 4.32392 9.0938 4.51173 8.47897 4.51061L6.97 4.50787C6.5405 4.50709 6.15848 4.78065 6.02088 5.18751L5.59519 6.44627C5.38832 7.05795 4.98962 7.58657 4.45832 7.95356L3.3528 8.71719C2.98426 8.97176 2.82995 9.44035 2.97512 9.86409L3.37375 11.0276C3.58966 11.6579 3.58966 12.342 3.37375 12.9723L2.97512 14.1358C2.82995 14.5595 2.98426 15.0281 3.3528 15.2827L4.45832 16.0463C4.98962 16.4133 5.38832 16.9419 5.59519 17.5536L6.02089 18.8124C6.15848 19.2192 6.5405 19.4928 6.97 19.492L8.47897 19.4893C9.0938 19.4881 9.69412 19.676 10.1987 20.0273L11.4284 20.8835C11.7718 21.1226 12.2278 21.1226 12.5712 20.8835L13.8009 20.0273C14.3055 19.676 14.9058 19.4881 15.5206 19.4893L17.0296 19.492C17.4591 19.4928 17.8411 19.2192 17.9787 18.8124L18.4044 17.5536C18.6113 16.9419 19.01 16.4133 19.5413 16.0463L20.6468 15.2827C21.0153 15.0281 21.1697 14.5595 21.0245 14.1358L20.6259 12.9723C20.4099 12.342 20.4099 11.6579 20.6259 11.0276L21.0245 9.86409C21.1697 9.44035 21.0153 8.97176 20.6468 8.71719L19.5413 7.95356C19.01 7.58657 18.6113 7.05795 18.4044 6.44627L17.9787 5.18751C17.8411 4.78065 17.4591 4.50709 17.0296 4.50787L15.5206 4.51061C14.9058 4.51173 14.3055 4.32392 13.8009 3.97259L12.5712 3.11636Z" fill="#E99C30"/>
    </svg>